<svg width="320" height="130" viewBox="0 0 320 130" fill="none" xmlns="http://www.w3.org/2000/svg">
<g clip-path="url(#clip0_937_124)">
<path d="M190.916 107.657C189.962 111.374 187.027 113.762 182.666 113.762C177.877 113.762 175.07 110.495 173.655 106.768L192.973 98.1668C192.373 91.7723 188.012 87.6485 180.116 87.6485C171.759 87.6485 165.427 94.4715 165.427 102.89C165.427 111.309 170.259 118.132 180.116 118.132C187.177 118.132 193.101 114.019 193.434 107.667H190.916V107.657ZM178.316 89.8336C182.494 89.041 185.484 92.747 185.366 97.492L172.734 103.115C171.952 98.0382 172.584 90.9154 178.327 89.8336H178.316Z" fill="white"/>
<path d="M282.393 83.5355C284.807 83.5355 286.765 81.5789 286.765 79.1654C286.765 76.7518 284.807 74.7953 282.393 74.7953C279.979 74.7953 278.022 76.7518 278.022 79.1654C278.022 81.5789 279.979 83.5355 282.393 83.5355Z" fill="white"/>
<path d="M278.675 90.337V117.597H286.122V87.0166L278.675 90.337Z" fill="white"/>
<path d="M118.284 87.6485C113.356 87.6485 109.199 90.4655 107.945 94.3001C106.831 90.487 102.77 87.6485 97.906 87.6485C93.0418 87.6485 89.3668 90.2192 88.049 93.7645V87.0273L81.6097 89.8871V117.597H89.0454V99.3771C89.0454 95.6068 91.8525 92.5435 95.3132 92.5435C98.7738 92.5435 101.581 95.6068 101.581 99.3771V117.597H109.017V99.3771C109.017 95.6068 111.824 92.5435 115.284 92.5435C118.745 92.5435 121.552 95.6068 121.552 99.3771V117.597H128.988V97.5562C128.988 91.9972 124.188 87.6485 118.263 87.6485H118.284Z" fill="white"/>
<path d="M76.3385 107.657C75.3849 111.374 72.4492 113.762 68.0886 113.762C63.2993 113.762 60.4922 110.495 59.078 106.768L78.3956 98.1668C77.7956 91.7723 73.4349 87.6485 65.5386 87.6485C57.1816 87.6485 50.8495 94.4715 50.8495 102.89C50.8495 111.309 55.6816 118.132 65.5386 118.132C72.5992 118.132 78.5242 114.019 78.8563 107.667H76.3385V107.657ZM63.7386 89.8336C67.9172 89.041 70.9064 92.747 70.7886 97.492L58.1565 103.115C57.3744 98.0382 58.0066 90.9154 63.7493 89.8336H63.7386Z" fill="white"/>
<path d="M42.4067 117.597H49.5209L43.3817 74.6346H37.5639L24.6212 108.342L11.6784 74.6346H6.13922L0 117.597H4.1571L8.90347 85.9026L21.064 117.597H25.2211L37.746 84.9707L42.4067 117.597Z" fill="white"/>
<path d="M231.747 87.6485C226.53 87.6485 219.019 89.7479 219.287 96.5601C219.683 106.607 238.315 103.501 238.315 111.845C238.315 114.598 235.197 116.183 231.394 115.701C226.84 115.122 224.848 111.224 224.194 108.374L218.173 111.052C220.09 117.029 227.494 118.121 231.469 118.121C235.005 118.121 245.258 116.868 244.883 108.889C244.379 98.231 225.855 102.087 225.855 94.0752C225.855 91.1725 228.608 89.9086 231.801 89.9621C234.855 90.005 237.812 91.9972 238.68 96.86L244.669 94.193C242.933 88.9124 236.815 87.6485 231.737 87.6485H231.747Z" fill="white"/>
<path d="M306.854 87.6485C302.172 87.6485 298.561 89.2552 296.311 92.5435V87.0273L289.872 89.8871V130H297.307V114.362C299.6 116.89 302.879 118.121 306.789 118.121C314.364 118.121 319.989 111.299 319.989 102.88C319.989 94.4608 315.039 87.6378 306.854 87.6378V87.6485ZM304.572 115.497C299.739 115.497 296.879 110.142 296.879 103.544C296.879 96.9457 299.739 91.5902 304.572 91.5902C308.579 91.5902 312.264 95.4355 312.264 103.544C312.264 111.652 308.579 115.497 304.572 115.497Z" fill="white"/>
<path d="M149.891 87.6485C145.852 87.6485 142.616 88.8374 140.356 91.2796V70.5858L132.92 73.8955V117.597H139.359V113.077C141.652 116.472 145.316 118.121 149.838 118.121C157.413 118.121 163.037 111.299 163.037 102.88C163.037 94.4607 158.088 87.6378 149.902 87.6378L149.891 87.6485ZM147.609 115.497C142.777 115.497 139.916 110.142 139.916 103.544C139.916 96.9457 142.777 91.5902 147.609 91.5902C151.616 91.5902 155.302 95.4354 155.302 103.544C155.302 111.652 151.616 115.497 147.609 115.497Z" fill="white"/>
<path d="M264.179 87.5735C260.236 87.5735 256.797 89.373 254.933 92.0615V70.5751L247.497 73.8848V117.586H254.933V99.3236C254.933 95.5426 257.74 92.4792 261.201 92.4792C264.661 92.4792 267.468 95.5426 267.468 99.3236V117.586H274.904V100.277C274.904 90.9047 270.104 87.5628 264.179 87.5628V87.5735Z" fill="white"/>
<path d="M212.569 88.0341C208.219 88.0341 204.544 90.6476 203.248 94.268V87.0273L196.808 89.8871V117.597H204.244V98.3596C204.244 94.8999 206.687 92.4685 210.019 92.5542C212.173 92.6077 214.305 94.0216 215.215 95.971L218.505 89.7158C216.951 88.6768 214.551 88.0448 212.558 88.0448L212.569 88.0341Z" fill="white"/>
<path d="M237.072 0C237.072 0 191.58 19.7619 164.773 31.4048C161.037 33.0257 157.284 33.0257 153.513 31.4048C139.97 25.578 129.063 20.8865 129.063 20.8865L112.917 27.8487C112.917 27.8487 126.899 33.8576 139.884 39.4488C141.406 40.1022 141.373 41.4625 139.745 42.2872C139.145 42.5871 137.795 43.1869 136.541 43.7225C132.827 45.3006 129.091 45.2863 125.334 43.6797C111.17 37.5851 100.745 33.1079 100.745 33.1079L82.9276 40.7877C82.9276 40.7877 114.095 54.1872 123.556 58.2574C129.949 61.0066 136.731 60.4853 143.902 56.6936C186.384 34.2539 244.904 3.36327 244.904 3.36327L237.083 0H237.072Z" fill="#FA0A00"/>
</g>
<defs>
<clipPath id="clip0_937_124">
<rect width="320" height="130" fill="white"/>
</clipPath>
</defs>
</svg>
